<svg width="74" height="24" fill="none" xmlns="http://www.w3.org/2000/svg"><path d="M12.552 3.264h6.408v.456h-1.32v15.888h1.32v.456h-7.32v-.456h1.32v-15h-.096l-3.6 15.456h-3L2.04 4.536h-.096v15.072h1.32v.456H0v-.456h1.32V3.72H0v-.456h6.48l3.192 12.36 2.88-12.36zM26.06 14.952c0 1.472.248 2.6.744 3.384.512.784 1.424 1.176 2.736 1.176 1.312 0 2.32-.408 3.024-1.224.704-.816 1.056-2.056 1.056-3.72V3.72h-1.56v-.456h3.504v.456h-1.32V14.4c0 1.984-.44 3.464-1.32 4.44-.88.976-2.44 1.464-4.68 1.464-2.224 0-3.928-.464-5.112-1.392-1.168-.928-1.752-2.52-1.752-4.776V3.72h-1.32v-.456h7.56v.456h-1.56v11.232zM43.505 19.8c.8 0 1.504-.216 2.112-.648.624-.432.936-1.08.936-1.944 0-.88-.336-1.552-1.008-2.016-.656-.464-1.6-.864-2.832-1.2-1.216-.352-2.104-.656-2.664-.912a7.195 7.195 0 01-1.56-1.008C37.497 11.24 37 9.952 37 8.208c0-1.424.504-2.648 1.512-3.672C39.537 3.512 40.929 3 42.689 3c.848 0 1.728.128 2.64.384.928.24 1.504.36 1.728.36.224 0 .424-.16.6-.48h.264l.168 4.848h-.384c-.768-1.392-1.576-2.504-2.424-3.336-.832-.848-1.744-1.272-2.736-1.272-.976 0-1.736.232-2.28.696-.544.448-.816 1.056-.816 1.824 0 .752.32 1.336.96 1.752.656.4 1.456.728 2.4.984s1.56.432 1.848.528c.304.096.672.232 1.104.408.448.16.808.336 1.08.528.288.176.584.408.888.696.32.272.568.576.744.912.432.768.648 1.68.648 2.736 0 1.728-.544 3.12-1.632 4.176-1.072 1.04-2.488 1.56-4.248 1.56-.912 0-1.96-.12-3.144-.36-1.168-.24-1.816-.36-1.944-.36-.224 0-.44.24-.648.72h-.336l-.24-5.712h.408a13.31 13.31 0 002.688 3.648c1.104 1.04 2.264 1.56 3.48 1.56zM50.695 3.264h7.32v.456h-1.32v15.888h1.32v.456h-7.32v-.456h1.32V3.72h-1.32v-.456zM68.227 3.48c-2.48 0-3.72 2.392-3.72 7.176v1.896c0 2.272.328 4.056.984 5.352.656 1.28 1.624 1.92 2.904 1.92 1.76 0 3.376-1.712 4.848-5.136h.432l-.168 5.352h-.264c-.096-.176-.184-.296-.264-.36-.08-.08-.2-.12-.36-.12-.144 0-.72.128-1.728.384-1.008.24-2.032.36-3.072.36-2.608 0-4.632-.704-6.072-2.112-1.424-1.408-2.136-3.52-2.136-6.336 0-2.832.744-5.016 2.232-6.552C63.347 3.768 65.363 3 67.89 3c.976 0 1.928.128 2.856.384.944.24 1.496.36 1.656.36.16 0 .28-.032.36-.096.08-.08.168-.208.264-.384h.264l.192 5.208h-.432c-.72-1.616-1.464-2.848-2.232-3.696-.752-.864-1.616-1.296-2.592-1.296z" fill="#5ABC61"/></svg>